# AST/ASF file generated using VICON BodyLanguage
# -----------------------------------------------
:version 1.10
:name VICON
:units
  mass 1.0
  length 0.45
  angle deg
:documentation
   .ast/.asf automatically generated from VICON data using
   VICON BodyBuilder and BodyLanguage model FoxedUp or BRILLIANT.MOD
:root
   order TX TY TZ RX RY RZ
   axis XYZ
   position 0 0 0  
   orientation 0 0 0 
:bonedata
  begin
     id 1 
     name lhipjoint
     direction 0.610259 -0.730986 0.305356 
     length 2.50941 
     axis 0 0 0  XYZ
  end
  begin
     id 2 
     name lfemur
     direction 0.34202 -0.939693 0  
     length 7.48822  
     axis 0 0 20  XYZ
    dof rx ry rz
    limits (-160.0 20.0)
           (-70.0 70.0)
           (-60.0 70.0)
  end
  begin
     id 3 
     name ltibia
     direction 0.34202 -0.939693 0   
     length 7.60141   
     axis 0 0 20   XYZ
    dof rx
    limits (-10.0 170.0)
  end
  begin
     id 4 
     name lfoot
     direction 0.0673488 -0.185039 0.980421   
     length 2.04049   
     axis -90 7.62852e-016 20   XYZ
    dof rx rz
    limits (-45.0 90.0)
           (-70.0 20.0)
  end
  begin
     id 5 
     name ltoes
     direction 1.5356e-011 -4.21729e-011 1   
     length 1.02897   
     axis -90 7.62852e-016 20   XYZ
    dof rx
    limits (-90.0 20.0)
  end
  begin
     id 6 
     name rhipjoint
     direction -0.57612 -0.754205 0.315056   
     length 2.43216  
     axis 0 0 0  XYZ 
  end
  begin
     id 7 
     name rfemur
     direction -0.34202 -0.939693 0   
     length 7.42799   
     axis 0 0 -20   XYZ
    dof rx ry rz
    limits (-160.0 20.0)
           (-70.0 70.0)
           (-70.0 60.0)
  end
  begin
     id 8 
     name rtibia
     direction -0.34202 -0.939693 0   
     length 7.69484   
     axis 0 0 -20   XYZ
    dof rx
    limits (-10.0 170.0)
 end
 begin
     id 9 
     name rfoot
     direction -0.111837 -0.30727 0.945028   
     length 2.15769  
     axis -90 -7.62852e-016 -20   XYZ
    dof rx rz
    limits (-45.0 90.0)
           (-20.0 70.0)
  end
  begin
     id 10 
     name rtoes
     direction -1.53539e-011 -4.21878e-011 1   
     length 1.07391   
     axis -90 -7.62852e-016 -20   XYZ
    dof rx
    limits (-90.0 20.0)
  end
  begin
     id 11 
     name lowerback
     direction 0.00552624 0.990109 -0.140195   
     length 2.12403   
     axis 0 0 0   XYZ
    dof rx ry rz
    limits (-20.0 45.0)
           (-30.0 30.0)
           (-30.0 30.0)
  end
  begin
     id 12 
     name upperback
     direction 0.00361898 0.999976 -0.00584723   
     length 2.13232   
     axis 0 0 0   XYZ
    dof rx ry rz
    limits (-20.0 45.0)
           (-30.0 30.0)
           (-30.0 30.0)
  end
  begin
     id 13 
     name thorax
     direction -0.000331275 0.998253 0.0590847   
     length 2.17688   
     axis 0 0 0   XYZ
    dof rx ry rz
    limits (-20.0 45.0)
           (-30.0 30.0)
           (-30.0 30.0)
  end
  begin
     id 14 
     name lowerneck
     direction -0.0561561 0.979832 0.19177   
     length 1.64159   
     axis 0 0 0   XYZ
    dof rx ry rz
    limits (-20.0 45.0)
           (-30.0 30.0)
           (-30.0 30.0)
  end
  begin
     id 15 
     name upperneck
     direction 0.0827153 0.979385 -0.184293   
     length 1.68939   
     axis 0 0 0   XYZ
    dof rx ry rz
    limits (-20.0 45.0)
           (-30.0 30.0)
           (-30.0 30.0)
  end
  begin
     id 16
     name head
     direction 0.0278583 0.995936 -0.0856488  
     length 1.70207  
     axis 0 0 0   XYZ
    dof rx ry rz
    limits (-20.0 45.0)
           (-30.0 30.0)
           (-30.0 30.0)
  end
  begin
     id 17 
     name lclavicle
     direction 0.950993 0.301131 -0.0702275  
     length 3.41652  
     axis 0 0 0   XYZ
    dof ry rz
    limits (-20.0 10.0)
           (0.0 20.0)
  end
  begin
     id 18 
     name lhumerus
     direction 1 -4.48981e-011 -3.9662e-029   
     length 5.32955   
     axis 180 -30 -90   XYZ
    dof rx ry rz
    limits (-60.0 90.0)
           (-90.0 90.0)
           (-90.0 90.0)
  end
  begin
     id 19
     name lradius
     direction 1 -4.48925e-011 -9.0549e-027   
     length 3.69232   
     axis 180 -30 -90   XYZ
    dof rx
    limits (-10.0 170.0)
  end
  begin
     id 20
     name lwrist
     direction 1 -4.49007e-011 -1.49005e-026   
     length 1.84616   
     axis 9.0955e-015 90 90   XYZ
    dof ry
    limits (-180.0 0.0)
 end
  begin
     id 21 
     name lhand
     direction 1 -4.49016e-011 -2.98023e-026   
     length 0.536598   
     axis 1.90115e-014 90 90   XYZ
    dof rx rz
    limits (-90.0 90.0)
           (-45.0 45.0)
  end
  begin
     id 22 
     name lfingers
     direction 1 -4.48924e-011 -5.9578e-026   
     length 0.432619   
     axis 3.80223e-014 90 90   XYZ
    dof rx
    limits (0.0 90.0)
  end
  begin
     id 23
     name lthumb
     direction 0.707107 -6.34947e-011 0.707107   
     length 0.621157   
     axis -90 45 -3.84942e-014   XYZ
    dof rx rz
    limits (-45.0 45.0)
           (-45.0 45.0)
  end
  begin
     id 24 
     name rclavicle
     direction -0.955495 0.276497 -0.102848   
     length 3.36357  
     axis 0 0 0   XYZ 
    dof ry rz
    limits (-10.0 20.0)
           (-20.0 0.0)
  end
  begin
     id 25 
     name rhumerus
     direction -1 -4.48961e-011 3.30983e-027  
     length 5.23431   
     axis 180 30 90   XYZ
    dof rx ry rz
    limits (-90.0 60.0)
           (-90.0 90.0)
           (-90.0 90.0)
  end
  begin
     id 26 
     name rradius
     direction -1 -4.48965e-011 -6.63263e-027   
     length 3.55301   
     axis 180 30 90   XYZ
    dof rx
    limits (-10.0 170.0)
  end
  begin
     id 27 
     name rwrist
     direction -1 -4.48942e-011 -1.48958e-026   
     length 1.77651   
     axis 9.0955e-015 -90 -90   XYZ
    dof ry
    limits (-180.0 0.0)
  end
  begin
     id 28
     name rhand
     direction -1 -4.48977e-011 -2.97966e-026   
     length 0.772522   
     axis 1.90115e-014 -90 -90   XYZ
    dof rx rz
    limits (-90.0 90.0)
           (-45.0 45.0)
  end
  begin
     id 29
     name rfingers
     direction -1 -4.49135e-011 -5.96389e-026   
     length 0.622827   
     axis 3.80223e-014 -90 -90   XYZ
    dof rx
    limits (0.0 90.0)
  end
  begin
     id 30
     name rthumb
     direction -0.707107 -6.34969e-011 0.707107   
     length 0.894259   
     axis -90 -45 3.84942e-014   XYZ
    dof rx rz
    limits (-45.0 45.0)
           (-45.0 45.0)
  end
:hierarchy
  begin
    root lhipjoint rhipjoint lowerback
    lhipjoint lfemur
    lfemur ltibia
    ltibia lfoot
    lfoot ltoes
    rhipjoint rfemur
    rfemur rtibia
    rtibia rfoot
    rfoot rtoes
    lowerback upperback
    upperback thorax
    thorax lowerneck lclavicle rclavicle
    lowerneck upperneck
    upperneck head
    lclavicle lhumerus
    lhumerus lradius
    lradius lwrist
    lwrist lhand lthumb
    lhand lfingers
    rclavicle rhumerus
    rhumerus rradius
    rradius rwrist
    rwrist rhand rthumb
    rhand rfingers
  end

#!OML:ASF F:\VICON\USERDATA\INSTALL\rory3\rory3.ASF
:FULLY-SPECIFIED
:DEGREES
64
root -9.77329 18.1829 -8.22441 178.085 -2.40764 181.796
lowerback 11.5916 2.24429 3.09578
upperback 0.626778 3.32067 0.597252
thorax -5.69803 1.51371 -1.64826
lowerneck -6.17693 -6.21747 -14.4503
upperneck 36.877 -17.0477 9.7348
head 16.3552 -9.95989 3.43993
rclavicle 3.64894e-014 -1.09332e-014
rhumerus -24.3172 -14.3705 -82.4445
rradius 35.398
rwrist 4.85453
rhand -16.2681 4.51797
rfingers 7.12502
rthumb 9.94147 -25.2273
lclavicle 3.64894e-014 -1.09332e-014
lhumerus -36.9991 17.0948 77.6834
lradius 28.2497
lwrist -7.7385
lhand -18.0857 25.4823
lfingers 7.12502
lthumb 8.18761 55.3037
rfemur 5.75112 -0.78812 26.1368
rtibia 24.5367
rfoot -7.60212 2.0197
rtoes -10.0683
lfemur -17.7459 -5.96209 -15.9156
ltibia 24.4181
lfoot -5.76232 -3.7785
ltoes -12.3914
65
root -9.77351 18.1959 -8.11189 177.975 -2.30803 181.744
lowerback 11.6891 2.10221 2.9742
upperback 0.546125 3.126 0.610056
thorax -5.85441 1.41891 -1.54278
lowerneck -5.35151 -6.49783 -14.5738
upperneck 36.4719 -17.8656 10.0599
head 16.1601 -10.356 3.47828
rclavicle -2.90723e-015 -5.1684e-015
rhumerus -24.9752 -14.5548 -82.3435
rradius 35.0532
rwrist 4.32264
rhand -16.3472 5.69839
rfingers 7.12502
rthumb 9.86522 -24.0505
lclavicle -2.90723e-015 -5.1684e-015
lhumerus -37.1714 16.9215 77.9458
lradius 28.514
lwrist -7.40775
lhand -18.1084 25.4858
lfingers 7.12502
lthumb 8.16571 55.308
rfemur 5.22548 -0.675696 26.0737
rtibia 25.0158
rfoot -7.5355 1.95963
rtoes -9.44041
lfemur -17.4692 -5.93136 -15.9847
ltibia 25.9757
lfoot -6.35307 -3.43064
ltoes -12.6956
66
root -9.77569 18.215 -8.00923 177.82 -2.2307 181.356
lowerback 11.6841 1.9904 2.53245
upperback 0.575744 2.91479 0.529889
thorax -5.84753 1.32732 -1.34452
lowerneck -4.45542 -6.73608 -14.5209
upperneck 35.9316 -18.5464 10.3303
head 15.8315 -10.6733 3.50318
rclavicle 3.60918e-014 3.57812e-015
rhumerus -25.5757 -14.8391 -82.1957
rradius 34.8519
rwrist 4.06648
rhand -15.5122 5.97541
rfingers 7.12502
rthumb 10.6707 -23.7336
lclavicle 3.60918e-014 3.57812e-015
lhumerus -37.0992 16.8076 78.2261
lradius 28.5739
lwrist -7.25083
lhand -18.031 25.2412
lfingers 7.12502
lthumb 8.2404 55.0605
rfemur 4.81351 -0.548575 25.6319
rtibia 25.4611
rfoot -7.47035 1.95607
rtoes -8.9769
lfemur -17.2308 -6.04708 -16.4364
ltibia 27.7663
lfoot -6.66704 -3.20997
ltoes -12.3392
67
root -9.77473 18.2326 -7.89985 177.646 -2.16862 181.351
lowerback 11.7062 1.8241 2.40541
upperback 0.674068 2.67233 0.593043
thorax -5.77412 1.21143 -1.16645
lowerneck -3.64746 -6.92081 -14.5426
upperneck 35.4646 -19.1393 10.5985
head 15.5616 -10.9652 3.5537
rclavicle 2.38293e-014 3.97569e-016
rhumerus -26.0073 -14.9526 -82.1093
rradius 34.6424
rwrist 3.68978
rhand -15.9261 5.93948
rfingers 7.12502
rthumb 10.2715 -23.7897
lclavicle 2.38293e-014 3.97569e-016
lhumerus -36.9735 16.6166 78.6552
lradius 28.8593
lwrist -7.02267
lhand -18.2379 25.2071
lfingers 7.12502
lthumb 8.04076 55.0341
rfemur 4.38589 -0.299342 25.6982
rtibia 25.8651
rfoot -7.3427 1.73367
rtoes -8.0632
lfemur -17.0852 -6.21662 -16.4018
ltibia 29.4052
lfoot -6.59013 -3.17031
ltoes -10.1949
68
root -9.76621 18.2357 -7.75769 177.659 -2.10657 182.26
lowerback 11.941 1.59845 3.12324
upperback 0.6292 2.48632 0.934626
thorax -5.94433 1.09625 -1.18957
lowerneck -3.06556 -7.1352 -14.7252
upperneck 35.2517 -19.8646 10.8678
head 15.5243 -11.3363 3.58508
rclavicle -1.08338e-014 -6.95746e-015
rhumerus -26.4259 -15.0401 -81.9821
rradius 34.3838
rwrist 3.10755
rhand -16.0956 5.96175
rfingers 7.12502
rthumb 10.1079 -23.7755
lclavicle -1.08338e-014 -6.95746e-015
lhumerus -36.8456 16.4583 79.1206
lradius 29.2297
lwrist -6.92195
lhand -18.2857 25.4334
lfingers 7.12502
lthumb 7.99463 55.2622
rfemur 3.55612 0.281444 26.9474
rtibia 26.2545
rfoot -6.9977 1.0356
rtoes -7.35631
lfemur -17.0207 -5.91008 -15.331
ltibia 31.1069
lfoot -7.13091 -3.2961
ltoes -13.4902
69
root -9.7717 18.2459 -7.66827 177.394 -2.16262 181.625
lowerback 11.9128 1.42668 2.40684
upperback 0.726731 2.15254 0.827595
thorax -5.86112 0.953105 -0.842105
lowerneck -2.83892 -7.41702 -14.9776
upperneck 35.2731 -20.8445 11.2528
head 15.7723 -11.8108 3.58902
rclavicle -3.2551e-015 1.21259e-014
rhumerus -27.0577 -15.3545 -81.78
rradius 34.0577
rwrist 2.90018
rhand -15.9078 6.04154
rfingers 7.12502
rthumb 10.2891 -23.6868
lclavicle -3.2551e-015 1.21259e-014
lhumerus -36.9184 16.3108 79.4177
lradius 29.5655
lwrist -6.87189
lhand -18.0934 25.7072
lfingers 7.12502
lthumb 8.18019 55.5288
rfemur 3.38811 0.152882 26.178
rtibia 26.6375
rfoot -7.12287 0.989045
rtoes -7.07669
lfemur -16.3837 -5.99564 -16.1564
ltibia 32.7409
lfoot -7.77986 -3.1618
ltoes -15.9596
70
root -9.77694 18.2511 -7.55339 177.389 -2.06242 181.741
lowerback 11.944 1.23304 2.43457
upperback 0.649288 1.90918 0.922586
thorax -5.97016 0.832733 -0.719707
lowerneck -2.68649 -7.68782 -15.1231
upperneck 35.3951 -21.7732 11.4187
head 16.0374 -12.2667 3.48296
rclavicle -7.1811e-015 -8.54774e-015
rhumerus -27.571 -15.5801 -81.5481
rradius 33.4327
rwrist 2.98198
rhand -16.0632 6.30818
rfingers 7.12502
rthumb 10.1392 -23.4275
lclavicle -7.1811e-015 -8.54774e-015
lhumerus -37.0386 16.1118 79.728
lradius 29.9159
lwrist -6.73443
lhand -17.8739 25.9752
lfingers 7.12502
lthumb 8.39201 55.7884
rfemur 2.75358 0.290136 26.3119
rtibia 27.0212
rfoot -6.96064 0.853875
rtoes -6.52378
lfemur -16.3328 -6.00224 -16.0414
ltibia 34.4144
lfoot -7.92552 -3.0937
ltoes -16.4693
71
root -9.78122 18.2594 -7.43789 177.351 -1.96381 181.892
lowerback 11.9646 1.05834 2.52396
upperback 0.68453 1.68936 1.03252
thorax -5.95133 0.721704 -0.617738
lowerneck -2.16238 -7.87667 -15.2163
upperneck 35.0143 -22.487 11.8608
head 15.9605 -12.6012 3.56763
rclavicle 2.2736e-014 0
rhumerus -27.8064 -15.7917 -81.303
rradius 32.7832
rwrist 3.17887
rhand -16.0889 6.37986
rfingers 7.12502
rthumb 10.1143 -23.357
lclavicle 2.2736e-014 0
lhumerus -36.9028 15.8744 80.1532
lradius 30.2456
lwrist -6.59959
lhand -17.8073 25.7384
lfingers 7.12502
lthumb 8.45626 55.5491
rfemur 2.15038 0.489371 26.5
rtibia 27.3948
rfoot -6.7208 0.680379
rtoes -5.81456
lfemur -16.078 -5.9222 -15.885
ltibia 35.8608
lfoot -7.97764 -3.16221
ltoes -15.8134
72
root -9.78375 18.2726 -7.33894 177.25 -1.8139 181.84
lowerback 11.8448 0.91479 2.36832
upperback 0.805163 1.46753 1.10745
thorax -5.76874 0.617798 -0.411092
lowerneck -1.59018 -8.10014 -15.3179
upperneck 34.5837 -23.2599 12.2902
head 15.8661 -12.9669 3.63893
rclavicle -2.15557e-014 -6.75868e-015
rhumerus -28.0586 -15.9617 -81.0543
rradius 32.2675
rwrist 3.37324
rhand -15.9676 6.21929
rfingers 7.12502
rthumb 10.2314 -23.5119
lclavicle -2.15557e-014 -6.75868e-015
lhumerus -36.7555 15.5982 80.5898
lradius 30.504
lwrist -6.43487
lhand -18.6763 25.1568
lfingers 7.12502
lthumb 7.61756 54.9996
rfemur 1.71325 0.585259 26.4362
rtibia 27.765
rfoot -6.64525 0.580632
rtoes -5.25177
lfemur -15.5923 -5.76732 -15.9854
ltibia 37.3265
lfoot -8.09867 -3.24555
ltoes -14.8604
73
root -9.78639 18.2825 -7.23667 177.216 -1.6474 181.757
lowerback 11.764 0.771677 2.15621
upperback 0.82604 1.2487 1.17269
thorax -5.71262 0.516763 -0.185904
lowerneck -1.3271 -8.37197 -15.422
upperneck 34.4118 -24.1109 12.5371
head 15.9638 -13.3675 3.58411
rclavicle 1.86361e-015 2.18663e-015
rhumerus -28.5164 -16.077 -80.8095
rradius 31.8215
rwrist 3.44543
rhand -15.9616 6.2672
rfingers 7.12502
rthumb 10.2372 -23.4637
lclavicle 1.86361e-015 2.18663e-015
lhumerus -36.77 15.2469 80.9656
lradius 30.7652
lwrist -6.20556
lhand -19.0399 25.1236
lfingers 7.12502
lthumb 7.26662 54.9789
rfemur 1.1872 0.641109 26.3359
rtibia 28.146
rfoot -6.68597 0.530676
rtoes -5.34134
lfemur -15.1643 -5.58074 -16.1052
ltibia 38.7368
lfoot -8.1437 -3.30112
ltoes -14.2289
